<svg width="12" height="12" viewBox="0 0 12 12" fill="none" xmlns="http://www.w3.org/2000/svg">
<path fill-rule="evenodd" clip-rule="evenodd" d="M0.862262 11.1381C0.601902 10.8777 0.601902 10.4556 0.862262 10.1953L9.72419 1.33333H4.00033C3.63214 1.33333 3.33366 1.03485 3.33366 0.666667C3.33366 0.29848 3.63214 0 4.00033 0H11.3337C11.5105 0 11.6801 0.0702401 11.8051 0.195267C11.9301 0.320293 12.0003 0.489853 12.0003 0.666667V8.00001C12.0003 8.3682 11.7018 8.66668 11.3337 8.66668C10.9655 8.66668 10.667 8.3682 10.667 8.00001V2.27615L1.80506 11.1381C1.54472 11.3984 1.12261 11.3984 0.862262 11.1381Z" fill="#E2E2E2"/>
</svg>
