<svg width="49" height="49" viewBox="0 0 49 49" fill="none" xmlns="http://www.w3.org/2000/svg">
<path d="M42.5888 3.06592H7.5366C5.62128 3.06592 3.94785 4.44404 3.94785 6.33686V41.4669C3.94785 43.37 5.62128 45.0659 7.5366 45.0659H42.5785C44.5041 45.0659 45.9478 43.3587 45.9478 41.4669V6.33686C45.9591 4.44404 44.5041 3.06592 42.5888 3.06592ZM16.9669 38.075H10.95V19.3672H16.9669V38.075ZM14.1666 16.5228H14.1235C12.1978 16.5228 10.951 15.0894 10.951 13.295C10.951 11.4678 12.2307 10.0681 14.1994 10.0681C16.1682 10.0681 17.3728 11.4575 17.416 13.295C17.415 15.0894 16.1682 16.5228 14.1666 16.5228ZM38.9569 38.075H32.94V27.8459C32.94 25.3953 32.0644 23.7209 29.8875 23.7209C28.2244 23.7209 27.24 24.8459 26.8022 25.9419C26.6382 26.3356 26.5941 26.8719 26.5941 27.4194V38.075H20.5772V19.3672H26.5941V21.9706C27.4697 20.7237 28.8375 18.9294 32.0203 18.9294C35.97 18.9294 38.9578 21.5328 38.9578 27.1456L38.9569 38.075Z" fill="white"/>
</svg>
